# xmcd CD database file
# Copyright (C) 1996 Ti Kan
#
# Track frame offsets:
#  150
#  12320
#  24950
#  36715
#  47758
#  59143
#  69028
#  80458
#  90108
#  111208
#  125970
#  144030
#  157043
#  168430
#  177588
#  188823
#  200510
#  213068
#  228125
#  246488
#  262548
#  275405
#  287105
#  306218
#  320838
#
# Disc length: 4472 seconds
#
# Revision: 1
# Processed by: cddbd v1.4b41PL1 Copyright (c) Steve Scherf et al.
# Submitted via: CDWizzard Release:4.10
#
DISCID=64117619
DTITLE=Marty Robbins - Marty Robbins: Legendary Country Singer
DYEAR=1900
DGENRE=
TTITLE0=I'll Go Alone
TTITLE1=I Couldn't Keep from Crying
TTITLE2=That's All Right
TTITLE3=Singing the Blues
TTITLE4=A White Sport Coat (and a Pink Carnation)
TTITLE5=Knee Deep in Blues
TTITLE6=The Story of My Life
TTITLE7=Just Married
TTITLE8=El Paso
TTITLE9=Don't Worry
TTITLE10=Big Iron
TTITLE11=Devil Woman
TTITLE12=Lovely Hula Hands
TTITLE13=Ruby Ann
TTITLE14=Begging to You
TTITLE15=Ribbon of Darkness
TTITLE16=Tonight Carmen
TTITLE17=I Walk Alone
TTITLE18=You Gave Me a Mountain
TTITLE19=My Woman, My Woman, My Wife
TTITLE20=Love Me
TTITLE21=Among My Souvenirs
TTITLE22=El Paso City
TTITLE23=Some Memories Just Won't Die
TTITLE24=Ain't I the Lucky One
EXTD=
EXTT0=Marty Robbins
EXTT1=Marty Robbins
EXTT2=Marty Robbins
EXTT3=Marty Robbins
EXTT4=Marty Robbins
EXTT5=Marty Robbins
EXTT6=Marty Robbins
EXTT7=Marty Robbins
EXTT8=Marty Robbins
EXTT9=Marty Robbins
EXTT10=Marty Robbins
EXTT11=Marty Robbins
EXTT12=Marty Robbins
EXTT13=Marty Robbins
EXTT14=Marty Robbins
EXTT15=Marty Robbins
EXTT16=Marty Robbins
EXTT17=Marty Robbins
EXTT18=Marty Robbins
EXTT19=Marty Robbins
EXTT20=Marty Robbins
EXTT21=Marty Robbins
EXTT22=Marty Robbins
EXTT23=Marty Robbins
EXTT24=Marty Robbins
PLAYORDER=
